<svg width="80" height="16" viewBox="0 0 80 16" fill="none" xmlns="http://www.w3.org/2000/svg">
<g clip-path="url(#clip0_3802_7552)">
<path fill-rule="evenodd" clip-rule="evenodd" d="M44.2213 9.52295C43.6737 9.52295 43.8647 9.52042 43.5681 9.32184C43.5681 8.79568 43.8065 8.1835 43.8191 7.61307C44.1467 7.61307 44.1929 7.56058 44.4547 7.49481C44.5774 7.46382 44.671 7.46256 44.793 7.42967C45.034 7.36516 45.139 7.2058 45.5671 7.62382C45.846 7.89639 45.8289 7.9318 45.8289 8.3669C45.8289 9.15046 44.9701 9.52295 44.2213 9.52295ZM43.9696 6.95979C43.9696 6.55062 44.0835 6.13639 44.1493 5.73228C44.3093 4.75267 44.4269 4.84943 45.2762 4.84943C46.0756 4.84943 46.2754 5.57481 45.4919 6.32105C45.3907 6.41844 45.3426 6.43552 45.2206 6.50192C44.9075 6.67141 44.3396 6.92943 43.9696 6.95979ZM42.412 4.59837C42.5689 4.83236 42.7636 4.78935 42.7636 5.05054C42.7636 5.53686 42.6296 5.90366 42.5549 6.34951C42.5208 6.55505 42.5056 6.78524 42.4531 7.0009L42.1085 8.96769C41.9851 9.91441 41.5077 9.48627 41.5077 9.92453C41.5077 10.1218 41.7562 10.1762 41.9598 10.1762C42.9831 10.1762 44.8538 10.2515 45.7663 10.063C45.9086 10.0339 46.0281 9.97386 46.1761 9.9201C47.3891 9.47742 47.8337 8.03868 47.0748 7.32216C46.9654 7.21908 46.8155 7.11726 46.6783 7.0654L46.1306 6.90983C46.4715 6.83014 46.83 6.59552 47.0716 6.39315C47.6667 5.89418 47.8368 4.94366 47.0337 4.49971C46.3222 4.10635 43.7938 4.24611 42.8142 4.24611C42.5581 4.24611 42.4607 4.3884 42.412 4.59837Z" fill="#34368F"/>
<path fill-rule="evenodd" clip-rule="evenodd" d="M2.71368 9.52295C2.0585 9.52295 2.00348 9.44959 2.13945 8.74761L2.31146 7.61307L3.32522 7.41829C3.44411 7.38224 3.5181 7.33481 3.60854 7.34429C4.21249 7.40501 4.74688 8.55536 3.85518 9.20738C3.54277 9.43631 3.11399 9.52295 2.71368 9.52295ZM2.41202 6.95979C2.53091 6.71252 2.58909 5.63362 2.77439 5.16121C2.92806 4.76975 3.22846 4.84943 3.76854 4.84943C4.61217 4.84943 4.84237 5.7639 3.70972 6.49876C3.43652 6.67584 2.75289 6.9522 2.41202 6.95979ZM0.904348 4.59837C1.30719 5.19916 1.38624 4.33718 1.05486 6.30588L0.599526 8.96643C0.505296 9.88659 0 9.49323 0 9.92453C0 10.1218 0.248538 10.1762 0.452174 10.1762C1.47541 10.1762 3.34609 10.2515 4.25866 10.063C4.40095 10.0339 4.52047 9.97386 4.66846 9.9201C6.04079 9.41923 6.59036 7.44864 4.89043 6.99394C4.87968 6.99141 4.7766 6.96485 4.77091 6.96295L4.62292 6.90983C4.98277 6.82572 5.40648 6.54619 5.63668 6.31536C5.64427 6.30777 5.65375 6.29702 5.66071 6.28943C5.86877 6.06746 6.04838 5.75757 6.06672 5.44263C6.11731 4.56991 5.1883 4.24611 4.3219 4.24611H1.30656C1.05043 4.24611 0.953676 4.38841 0.904348 4.59837Z" fill="#34368F"/>
<path fill-rule="evenodd" clip-rule="evenodd" d="M66.1812 9.52295C65.2231 9.52295 65.1472 9.85623 65.7663 6.84722C65.8182 6.59742 66.03 5.1922 66.1009 5.07078C66.3102 4.71157 67.6149 4.74698 68.093 5.34967C69.1257 6.6518 68.1239 9.52295 66.1812 9.52295ZM64.1708 4.54777C64.1708 4.82161 64.5224 4.84501 64.5224 4.99995L63.8413 9.04232C63.6699 9.93592 63.2664 9.40532 63.2664 10.0757C63.4416 10.1162 63.4359 10.1762 63.618 10.1762C65.4602 10.1762 66.8351 10.3672 68.3485 9.68042C69.2104 9.28896 69.6949 8.39283 69.9769 7.53971C70.1856 6.91046 70.1281 6.16991 69.8795 5.57291L69.569 5.07963C69.0934 4.54461 68.3206 4.24611 67.4371 4.24611H64.6229C64.3801 4.24611 64.1708 4.30809 64.1708 4.54777Z" fill="#34368F"/>
<path fill-rule="evenodd" clip-rule="evenodd" d="M56.4319 9.52295C55.3088 9.52295 55.6585 9.53054 56.0949 6.87378C56.16 6.47852 56.2466 6.12501 56.3099 5.68169C56.4307 4.83615 56.4914 4.84943 57.3869 4.84943C57.5867 4.84943 57.8194 4.94366 57.9744 5.01512C58.2052 5.122 58.2704 5.19093 58.4304 5.36358C59.3726 6.37734 58.7124 9.52295 56.4319 9.52295ZM54.4721 4.54777C54.5549 4.70461 54.4955 4.65844 54.6435 4.77923C54.9053 4.99236 54.9527 4.85007 54.7636 5.64311C54.615 6.26793 54.2647 9.17639 54.0231 9.47552C53.8441 9.6975 53.6183 9.60643 53.6183 9.97512C53.6183 10.1516 53.841 10.1762 54.0199 10.1762C55.601 10.1762 57.7436 10.3647 58.9091 9.5375C59.6376 9.02018 59.964 8.55473 60.2719 7.6839C60.6729 6.54872 60.3813 4.98603 59.0602 4.48263C58.1255 4.12722 56.0911 4.24611 54.9749 4.24611C54.6511 4.24611 54.5847 4.33592 54.4721 4.54777Z" fill="#34368F"/>
<path fill-rule="evenodd" clip-rule="evenodd" d="M19.7489 4.54777C19.7489 4.74509 19.9671 4.8292 20.1006 4.89939L19.5858 8.25433C19.5459 8.44532 19.4934 8.73623 19.4618 8.93418C19.4163 9.21876 19.4226 9.37939 19.2493 9.52548C19.1387 9.61844 18.844 9.75188 18.844 9.92453C18.844 10.0871 19.0267 10.1762 19.1962 10.1762H20.8544C21.0675 10.1762 21.206 10.0807 21.206 9.87457C21.206 9.40406 20.6419 10.0333 20.9651 8.67868C20.9809 8.61101 21.0182 8.45354 21.0346 8.34603L21.0675 8.07726C21.1244 7.81797 21.151 7.86667 21.4413 7.69781C21.5899 7.6118 21.6822 7.5473 21.8093 7.46255L22.3285 8.40042C22.4506 8.64453 22.7636 9.23773 22.7636 9.47236C22.7636 9.60959 22.4879 9.6001 22.412 9.92453C22.517 10.1231 22.5632 10.1762 22.8642 10.1762C24.4851 10.1762 24.7235 10.3463 24.7235 9.67346C24.4054 9.58872 24.3725 9.2858 24.2574 8.98414C24.1353 8.66287 24.0335 8.44342 23.8862 8.14935L23.2323 6.99457C23.1172 6.79663 23.0716 6.85101 23.0153 6.60817C23.2171 6.55441 23.7774 6.01623 23.988 5.82208L24.2283 5.61022C24.6982 5.21876 24.4598 5.23963 25.1308 4.85449C25.5848 4.59331 25.3635 4.24611 25.0251 4.24611C24.5894 4.24611 23.3511 4.08801 23.4169 4.59837C23.5668 4.88105 23.5719 4.73117 23.7186 4.94999C23.6395 5.24532 23.4112 5.35789 23.2044 5.54129C23.1494 5.58935 23.1311 5.61465 23.0767 5.66461L21.256 7.06034L21.4773 5.57291C21.6215 4.63062 22.1578 4.86208 22.1104 4.49781C22.0281 4.34161 22.0009 4.24611 21.7587 4.24611C21.1579 4.24611 19.7489 4.0937 19.7489 4.54777Z" fill="#34368F"/>
<path fill-rule="evenodd" clip-rule="evenodd" d="M13.2661 4.59837C13.7031 5.25038 13.7208 4.48074 13.576 5.71204C13.5406 6.0156 13.5153 6.09275 13.4628 6.35204L12.9935 8.99868C12.9442 9.2839 12.9929 9.40469 12.8025 9.56153C12.5862 9.73987 12.4939 9.62477 12.4123 9.97512C12.6255 10.2939 12.8272 10.1762 13.7689 10.1762C14.025 10.1762 14.1217 10.0346 14.1711 9.82461C14.1028 9.74619 14.0503 9.70319 13.9617 9.63173C13.6095 9.34967 13.7954 9.03094 13.9061 8.40358L14.3216 5.65323L16.0734 8.87663C16.3592 9.4186 16.5704 10.1762 17.0353 10.1762C18.0844 10.1762 17.7126 9.81196 18.0787 8.20501L18.6681 5.02461C18.801 4.6439 19.1956 4.9405 19.0451 4.29671C18.7953 4.23852 17.4375 4.08422 17.4375 4.54777C17.4375 4.83109 17.7891 4.68943 17.7891 5.20105L17.3369 8.06524C17.1851 7.95457 17.2711 7.99378 17.0726 7.57576C16.8247 7.05528 16.5628 6.44627 16.2719 5.96437L15.3764 4.49781C15.1355 4.12595 14.3197 4.24611 13.6683 4.24611C13.4122 4.24611 13.3154 4.3884 13.2661 4.59837Z" fill="#34368F"/>
<path fill-rule="evenodd" clip-rule="evenodd" d="M50.1508 7.26145C50.2027 7.0401 50.2229 6.81813 50.259 6.5658C50.2893 6.35394 50.3387 6.13386 50.3804 5.88343C50.5594 4.81212 50.5069 4.84943 51.4574 4.84943C51.6098 4.84943 51.9304 5.01702 52.0152 5.09544C52.5464 5.58619 52.0835 6.51647 51.575 6.82635C51.3284 6.97623 51.2803 7.03125 50.9749 7.13117C50.6441 7.23868 50.5726 7.26145 50.1508 7.26145ZM48.6938 4.49781C48.6938 4.87536 48.9929 4.73307 49.0353 5.06003C49.0498 5.17449 49.0409 5.13086 49.0283 5.22698L48.4016 8.97971C48.301 9.75568 47.8994 9.50145 47.7888 9.97512C47.797 9.98398 47.8071 9.98777 47.8109 10.0036C47.8141 10.0194 47.828 10.0257 47.833 10.0314C47.9298 10.1307 47.9703 10.1762 48.141 10.1762H49.8492C50.1527 10.1762 50.2008 10.0156 50.2008 9.82461C50.2008 9.65386 49.8492 9.55773 49.8492 9.4224C49.8492 9.00564 50.0503 8.43584 50.0503 7.86477C51.0084 7.86477 51.9709 7.79584 52.7949 7.24184C53.1263 7.01924 53.2674 6.91046 53.5045 6.59489C54.3608 5.45655 53.7006 4.24611 51.809 4.24611H49.0953C48.9303 4.24611 48.6938 4.39916 48.6938 4.49781Z" fill="#34368F"/>
<path fill-rule="evenodd" clip-rule="evenodd" d="M9.49755 5.45212C9.51146 5.61844 9.56332 5.78287 9.61961 5.93338C9.74672 6.27046 9.94972 7.19062 9.94972 7.56311H8.14103C8.34087 7.18429 8.51795 6.81307 8.74625 6.46018C8.81202 6.35837 8.83289 6.34445 8.91004 6.22176C9.02324 6.04279 9.37613 5.5337 9.49755 5.45212ZM5.87953 9.87457C5.87953 10.2901 5.77455 10.1762 7.43716 10.1762C7.64585 10.1762 7.63826 9.98967 7.63826 9.87457C7.63826 9.61212 7.28664 9.72532 7.28664 9.3718C7.28664 9.12453 7.65976 8.60659 7.73882 8.26635H10.1002C10.1413 8.75647 10.2008 8.83109 10.2008 9.47236C10.2008 9.79742 9.79921 9.47615 9.79921 9.97512C9.79921 10.1294 9.94593 10.1762 10.1002 10.1762H11.859C12.0721 10.1762 12.2112 10.0807 12.2112 9.87457C12.2112 9.70445 11.9336 9.6273 11.8394 9.29149C11.7591 9.00817 11.7609 8.72358 11.6964 8.42888L11.0052 5.70382C10.861 5.31615 10.8522 5.15805 10.6207 4.63062C10.4335 4.20501 10.4329 4.14556 9.94972 4.14556C9.5083 4.14556 9.30909 4.53576 8.96633 4.97149C8.86135 5.10556 8.79557 5.17512 8.70324 5.31109L8.20553 6.01939C8.02846 6.26983 7.88301 6.52469 7.72301 6.79346C7.17534 7.71489 6.93755 8.22208 6.47399 9.21307C6.21976 9.75694 5.87953 9.602 5.87953 9.87457Z" fill="#34368F"/>
<path fill-rule="evenodd" clip-rule="evenodd" d="M73.8188 4.54777C73.8188 4.81844 74.1363 4.6907 74.3412 5.282C74.4582 5.61908 74.5891 5.88722 74.7402 6.18951C74.8933 6.49497 75.0261 6.73275 75.176 7.01038C75.7964 8.15821 75.723 7.41702 75.5801 8.46999C75.5453 8.72548 75.4985 9.14603 75.3872 9.38192C75.3069 9.55141 75.3334 9.49007 75.1646 9.56153C74.3292 9.91568 74.9085 10.1762 75.1254 10.1762H77.1358C77.4109 10.1762 77.7088 9.84485 77.2585 9.6507C76.9689 9.52611 76.9847 9.59441 76.9847 9.22129L77.1687 7.99821C77.2212 7.65987 77.2458 7.73955 77.6594 7.28295L79.5333 5.03599C79.7711 4.79568 80 4.85323 80 4.44722C80 4.13418 79.1621 4.24611 78.6435 4.24611C78.4202 4.24611 78.3304 4.36437 78.2413 4.49781C78.3178 4.8254 78.4171 4.68754 78.5929 4.94999L78.2811 5.54256C78.1268 5.73544 78.0168 5.87963 77.8549 6.07125C77.7758 6.16422 77.736 6.22429 77.6544 6.32295C77.6057 6.3824 77.5823 6.41275 77.5406 6.46018L77.4678 6.53797C77.4609 6.54556 77.4501 6.55631 77.4432 6.5639C77.2711 6.75046 77.0441 6.88833 76.9847 7.11094C76.7602 7.05086 76.7627 6.89908 76.6425 6.69924C75.2304 4.34414 76.382 5.07837 76.382 4.49781C76.382 4.33528 76.1992 4.24611 76.0304 4.24611H74.2716C74.0282 4.24611 73.8188 4.30809 73.8188 4.54777Z" fill="#34368F"/>
<path fill-rule="evenodd" clip-rule="evenodd" d="M71.1058 4.49781C71.1058 5.17576 71.6452 4.33022 71.3455 5.64184C71.305 5.81829 71.2854 6.08706 71.2493 6.29955C71.2145 6.50572 71.1741 6.70999 71.133 6.93765C71.028 7.51947 70.9154 9.23963 70.6043 9.52422C70.455 9.66082 70.2514 9.71014 70.2514 9.97512C70.2514 10.1294 70.3987 10.1762 70.553 10.1762H72.1606C72.4041 10.1762 72.6128 10.1143 72.6128 9.87457C72.6128 9.6488 72.2612 9.60643 72.2612 9.47236C72.2612 8.82034 72.8329 6.3375 72.9176 5.50588C73.0062 4.63947 73.5178 4.90635 73.5178 4.49781C73.5178 4.33528 73.335 4.24611 73.1655 4.24611H71.5579C71.3543 4.24611 71.1058 4.3005 71.1058 4.49781Z" fill="#34368F"/>
<path fill-rule="evenodd" clip-rule="evenodd" d="M38.0174 7.29307C38.0174 8.06018 38.0269 8.43647 37.896 9.21623C37.6696 10.5639 37.2262 11.7535 36.4149 12.838C35.656 13.8524 34.4778 14.6632 33.1377 14.6632C32.7823 14.6632 32.4585 14.5962 32.1815 14.526C31.059 14.2401 30.0503 13.2371 29.4564 12.2499C28.4395 10.5607 28.067 8.3941 28.3244 6.32675C28.4825 5.05497 28.8923 3.88627 29.4362 2.98382C30.7219 0.848168 32.9986 -0.265508 35.2032 1.19789C35.8489 1.6273 36.4047 2.2692 36.8063 2.93576C37.0163 3.28358 37.0327 3.34366 37.194 3.66176C37.6816 4.62366 38.0174 6.20595 38.0174 7.29307ZM30.0598 0.378286C29.8466 0.659709 29.6474 0.949986 29.4609 1.26746C29.4122 1.3503 29.3704 1.42176 29.3306 1.50208C28.9581 2.25971 28.8272 2.43489 28.5236 3.34682C27.5573 6.24706 27.453 9.71837 28.7228 12.6186C28.764 12.7128 28.8057 12.7938 28.8449 12.8817C28.9651 13.153 29.0833 13.3623 29.2225 13.6172L29.8251 14.5329C29.8858 14.6101 29.9453 14.6739 29.9984 14.7448C30.0939 14.8719 30.3323 14.8915 30.5499 14.9427C32.0588 15.2969 34.6808 15.2298 36.0696 14.8618C36.2163 14.8226 36.2068 14.8308 36.2934 14.7214C37.2085 13.5609 37.767 12.3644 38.135 10.8928C38.2337 10.4969 38.3317 10.0523 38.3804 9.61971C38.4892 8.64959 38.4797 8.39346 38.4828 7.45497C38.4841 7.18682 38.4171 6.3609 38.3734 6.04595C38.2577 5.20675 38.0927 4.3688 37.8277 3.57512C37.5545 2.75742 37.2345 1.96184 36.7911 1.22951L36.3396 0.54714C36.3105 0.508563 36.2934 0.482002 36.2625 0.44216C36.2131 0.379551 36.2283 0.388405 36.1429 0.358682C35.7565 0.226508 34.9477 0.116468 34.5157 0.0829504C34.0553 0.046903 33.5741 0.00895829 33.0568 0.025401C32.5217 0.0266658 31.9886 0.0538595 31.4612 0.111409C31.2183 0.13797 30.9749 0.17718 30.7402 0.219551C30.4923 0.264452 30.2906 0.329591 30.0598 0.378286Z" fill="#34368F"/>
<path fill-rule="evenodd" clip-rule="evenodd" d="M32.8304 10.7384L32.8651 10.7056C32.9866 10.5652 33.2085 10.0491 33.2648 9.89038C33.49 9.24975 33.5165 8.61038 33.3603 7.94066C33.7802 7.90587 34.4569 7.52643 34.7111 7.22603C34.868 7.04074 34.9888 6.80105 35.0786 6.56137C35.2791 6.02635 35.2993 5.239 35.1399 4.68311C35.0982 4.53702 34.9768 4.11394 34.8383 4.11394C34.739 4.11394 34.5783 4.14366 34.5145 4.17465C34.7453 4.61165 34.6738 4.87283 34.7289 5.23584L34.7162 5.85433C34.6808 6.29323 34.5328 6.68975 34.2716 7.02999C33.9832 7.4069 33.7568 7.5707 33.2996 7.67757C33.2231 7.34999 33.0043 6.87504 32.8133 6.60437C32.702 6.44627 32.616 6.38872 32.5704 6.32105C32.604 6.27109 32.7077 6.21165 32.7962 6.10161C33.1725 5.63615 33.2395 4.86082 33.0074 4.30429L32.8164 3.96975C32.7747 3.91473 32.7715 3.93117 32.7526 3.85086C33.027 3.78698 33.4413 3.43283 33.9674 3.66809C34.0471 3.70414 34.2052 3.78825 34.2514 3.85086C34.068 3.89323 33.8612 3.9122 33.6721 3.86287C33.5817 3.83884 33.5614 3.80848 33.4817 3.79014C33.5469 3.88754 33.8112 4.05323 33.9674 4.05323C34.5979 4.05323 34.7542 3.79267 35.0925 3.90018C35.219 3.94003 35.336 4.07536 35.3923 4.1873C35.6939 4.78366 35.6686 6.86872 35.6686 7.71805C35.6686 8.58002 35.3897 9.84738 34.9768 10.5291C34.911 10.6373 34.8199 10.7903 34.7333 10.8725C34.4645 11.128 33.9624 10.9851 33.6784 10.8624C33.5178 10.7935 33.0979 10.5437 32.8544 10.7555L32.8304 10.7384ZM33.4381 10.7384C33.5703 10.7049 33.796 10.5133 34.1641 10.6803C34.4152 10.7947 34.3146 10.8105 34.4133 10.7555C34.3855 10.6512 34.271 10.5867 34.1907 10.5323V7.90018L33.9137 8.0488C33.8131 8.09939 33.7164 8.13481 33.6234 8.1835V10.4311C33.5013 10.4956 33.3894 10.55 33.3603 10.6746L33.4381 10.7384ZM33.4817 3.76991L33.4754 3.7756C33.4761 3.77497 33.4836 3.7718 33.4817 3.76991ZM33.4615 3.74967L33.4552 3.75536C33.4558 3.75473 33.4634 3.75157 33.4615 3.74967ZM33.4413 3.72943L33.4349 3.73512C33.4356 3.73449 33.4432 3.73133 33.4413 3.72943ZM33.421 3.70856L33.4147 3.71489C33.4153 3.71425 33.4229 3.71109 33.421 3.70856ZM33.4008 3.68833L33.3945 3.69465C33.3951 3.69402 33.4027 3.69086 33.4008 3.68833ZM33.3806 3.66809L33.3742 3.67441C33.3749 3.67378 33.3825 3.67062 33.3806 3.66809ZM32.3276 10.6746C32.2821 10.6436 32.1657 10.5626 32.1657 10.512V7.87995L32.8544 7.90018C32.9031 8.11014 32.8949 8.58002 32.8949 8.83172C32.8949 9.25228 32.8702 9.57228 32.7583 9.89038C32.6242 10.2743 32.5255 10.3786 32.3276 10.6746ZM31.5782 3.58714C31.7123 3.57639 31.6572 3.54667 31.9228 3.54667C32.1081 3.54667 32.3706 3.64785 32.4085 3.79014C32.227 3.79014 32.0822 3.85212 31.8128 3.75789L31.618 3.64912C31.5598 3.59473 31.6104 3.64912 31.5782 3.58714ZM30.2621 3.40501C30.2621 3.57829 30.2963 3.65354 30.4392 3.7952C30.7776 4.13165 31.0786 3.85086 31.5377 3.60738C31.5763 3.68833 31.556 3.69528 31.6231 3.76548C31.8368 3.99125 32.2428 3.99884 32.53 3.9318C32.5622 4.06967 32.6071 4.16896 32.6349 4.33338C32.6931 4.67805 32.7273 5.63362 32.5502 5.91568C32.4269 6.11172 32.2492 6.11868 32.1657 6.15916V4.39726C32.2998 4.30746 32.3377 4.29101 32.4288 4.15441L32.3649 4.07663C32.1714 4.20437 32.1708 4.2556 31.9026 4.2556C31.8292 4.2556 31.7293 4.21955 31.68 4.19425C31.6111 4.15884 31.5757 4.11204 31.5175 4.07346C31.4871 4.09433 31.396 4.16706 31.3758 4.19489C31.4232 4.26508 31.4827 4.33465 31.5782 4.35678V6.07821C31.4877 6.03457 31.4036 6.00358 31.3151 5.95615C31.3847 6.25338 31.7717 6.44248 32.0645 6.44248C32.1796 6.44248 32.2043 6.42224 32.3276 6.42224C32.4281 6.57212 32.5591 6.81939 32.6286 6.99141C32.7608 7.3171 32.7545 7.31773 32.8342 7.65734H32.1657V6.68532C32.012 6.72137 31.9077 6.71631 31.7546 6.65117C31.6857 6.62208 31.6395 6.58034 31.5782 6.5639V7.77876C31.4637 7.83947 31.3277 7.92169 31.2949 8.06208L31.5782 7.94066V10.4311C31.4726 10.4874 31.3802 10.5576 31.3151 10.6543L31.3916 10.7397C31.5567 10.6942 31.6851 10.5449 32.0468 10.6512C32.1353 10.6771 32.1904 10.7169 32.2669 10.7353C32.1518 10.9067 31.8109 11.1805 31.5175 11.1805C31.1013 11.1805 30.8591 10.5917 30.3804 10.9946C30.3266 11.0401 30.2191 11.1856 30.2014 11.2614C30.3096 11.2045 30.4044 11.1413 30.5277 11.1014C30.9616 10.9611 30.9072 11.3658 31.6035 11.4594C32.0487 11.5188 32.3453 11.3664 32.6286 11.0154C32.769 10.8415 32.7842 10.7758 32.9151 10.7758C33.0707 10.7758 33.2168 10.8567 33.316 10.9212C33.4349 10.9977 33.5368 11.0673 33.6525 11.1514C34.2501 11.5878 34.9407 11.6599 35.4201 11.0129C35.7907 10.5127 36.0076 9.70761 36.1056 9.06635C36.1619 8.69639 36.2157 8.26698 36.215 7.85971C36.215 7.76042 36.2087 7.63267 36.2169 7.53655C36.222 7.47331 36.2334 7.46635 36.227 7.40248C36.2024 7.15078 36.2144 6.86113 36.2157 6.60437L36.1284 5.37497C36.0721 4.92532 35.9216 3.54667 35.3246 3.54667C35.1627 3.54667 34.9761 3.58398 34.8585 3.62761C34.6005 3.72311 34.6093 3.78888 34.4765 3.68643C34.2615 3.51947 33.9466 3.34429 33.6234 3.34429C33.3553 3.34429 32.8904 3.65923 32.5907 3.72943C32.4958 3.58651 32.1587 3.38477 32.024 3.38477C31.5946 3.38477 30.9451 3.8673 30.615 3.6605C30.5663 3.62951 30.5157 3.58777 30.4841 3.54793C30.4462 3.49987 30.419 3.45054 30.3848 3.40248C30.357 3.3639 30.2621 3.28421 30.2621 3.40501Z" fill="#34368F"/>
<path fill-rule="evenodd" clip-rule="evenodd" d="M30.1812 4.15441C30.1957 4.32643 30.4038 4.3726 30.4038 4.45797V10.3704C30.4038 10.4444 30.2564 10.4811 30.1407 10.6543L30.2172 10.7397C30.5126 10.6632 30.5385 10.4602 31.1734 10.796L31.2544 10.7353C31.231 10.6335 31.1557 10.5626 31.0874 10.4975C30.9628 10.378 30.99 10.414 30.9913 10.1882V4.43773C31.0982 4.40927 31.2386 4.25876 31.2949 4.17465L31.1892 4.07789C30.8174 4.32137 30.6928 4.32074 30.3228 4.07346C30.2729 4.1171 30.2571 4.13671 30.1812 4.15441Z" fill="#34368F"/>
<path fill-rule="evenodd" clip-rule="evenodd" d="M33.421 4.17465C33.4463 4.27078 33.5254 4.33402 33.6234 4.35678V7.31331C33.6993 7.2956 33.7183 7.26524 33.7777 7.22414C33.8732 7.1571 34.1331 6.94777 34.1736 6.87125C34.2659 6.69797 34.1205 4.53007 34.2147 4.40169C34.2324 4.37765 34.3102 4.32833 34.3475 4.29165C34.3962 4.24422 34.4379 4.20754 34.474 4.15441L34.4095 4.07663C34.216 4.20437 34.1774 4.2556 33.927 4.2556C33.7967 4.2556 33.6164 4.14619 33.5627 4.07346C33.5159 4.10509 33.471 4.14113 33.421 4.17465Z" fill="#34368F"/>
<path fill-rule="evenodd" clip-rule="evenodd" d="M31.9431 13.2662H31.8014V12.2942H32.0038C32.2422 12.2942 32.3478 12.4991 32.3478 12.7394C32.3478 13.0417 32.2485 13.2662 31.9431 13.2662ZM31.5175 13.3269C31.5175 13.4218 31.6421 13.3876 31.8824 13.3876C32.0778 13.3876 32.2289 13.332 32.3333 13.2314C32.7039 12.8735 32.5394 12.1728 32.0443 12.1728H31.5175V13.3269Z" fill="#34368F"/>
<path fill-rule="evenodd" clip-rule="evenodd" d="M34.049 12.9222V13.3876H34.3121V12.9222C34.6207 12.8501 34.8332 12.3878 34.8383 12.1525H34.6157C34.6131 12.272 34.5505 12.4801 34.5081 12.5712C34.3589 12.8943 34.0319 12.9139 33.8726 12.592C33.7916 12.4276 33.7885 12.3397 33.7448 12.1525H33.5222C33.5431 12.403 33.741 12.8501 34.049 12.9222Z" fill="#34368F"/>
<path fill-rule="evenodd" clip-rule="evenodd" d="M32.9353 13.3876H33.1984V12.1728H32.9353V13.3876Z" fill="#34368F"/>
<path fill-rule="evenodd" clip-rule="evenodd" d="M30.0598 0.378286C30.2906 0.329591 30.4923 0.264452 30.7402 0.219551C30.9749 0.17718 31.2183 0.13797 31.4612 0.111409C31.9886 0.0538595 32.5217 0.0266658 33.0568 0.025401C33.0017 -0.0125437 32.7627 0.00326658 32.6716 0.00326658L31.4757 0.0829504C31.2209 0.110776 30.4057 0.232832 30.1426 0.328326L30.0598 0.378286Z" fill="#34368F"/>
<path fill-rule="evenodd" clip-rule="evenodd" d="M33.3666 3.74398L33.3818 3.7288C33.3806 3.73006 33.3616 3.73892 33.3666 3.74398Z" fill="#34368F"/>
</g>
<defs>
<clipPath id="clip0_3802_7552">
<rect width="80" height="15.1759" fill="white"/>
</clipPath>
</defs>
</svg>
